<svg width="614" height="614" viewBox="0 0 614 614" fill="none" xmlns="http://www.w3.org/2000/svg">
    <path d="M94.512 306.488C93.6587 307.597 92.8907 309.048 92.208 310.84C91.6107 312.632 91.44 314.211 91.696 315.576C91.0987 314.296 90.8 312.675 90.8 310.712C90.8853 308.835 91.312 307.299 92.08 306.104C90.8853 307.469 89.904 309.261 89.136 311.48C88.368 313.784 87.984 315.875 87.984 317.752C87.3867 315.96 87.2587 313.869 87.6 311.48C88.0267 309.091 88.6667 307.085 89.52 305.464C88.24 306.147 86.8747 307.256 85.424 308.792C83.9733 310.328 82.992 311.821 82.48 313.272C81.7973 311.907 81.456 310.157 81.456 308.024C81.5413 305.891 81.84 304.141 82.352 302.776C80.56 303.117 78.5547 304.013 76.336 305.464C74.2027 306.915 72.5813 308.365 71.472 309.816C71.216 308.024 71.4293 305.848 72.112 303.288C72.7947 300.728 73.7333 298.723 74.928 297.272C73.4773 297.357 71.8133 297.869 69.936 298.808C68.144 299.661 66.7787 300.685 65.84 301.88C66.2667 300.429 67.0773 298.893 68.272 297.272C69.4667 295.651 70.704 294.499 71.984 293.816C71.0453 293.475 69.8507 293.389 68.4 293.56C66.9493 293.731 65.84 294.115 65.072 294.712C65.2427 293.944 65.6267 293.133 66.224 292.28C66.9067 291.427 67.5893 290.701 68.272 290.104C67.1627 290.701 65.84 291.128 64.304 291.384C62.768 291.64 61.4027 291.683 60.208 291.512C61.6587 291.427 63.1947 290.915 64.816 289.976C66.4373 289.037 67.6747 288.013 68.528 286.904C67.1627 286.392 65.4987 286.307 63.536 286.648C61.5733 286.904 59.9947 287.459 58.8 288.312C59.568 287.373 60.6773 286.563 62.128 285.88C63.5787 285.112 64.9867 284.643 66.352 284.472C65.072 284.387 63.7067 284.045 62.256 283.448C60.8053 282.851 59.6533 282.211 58.8 281.528C60.08 281.443 61.616 280.888 63.408 279.864C65.2 278.84 66.3947 277.773 66.992 276.664C66.1387 276.579 65.0293 276.237 63.664 275.64C62.384 275.043 61.4453 274.403 60.848 273.72C61.7867 273.635 62.896 273.293 64.176 272.696C65.5413 272.099 66.48 271.459 66.992 270.776C65.6267 269.496 63.7067 268.643 61.232 268.216C58.7573 267.704 56.5813 267.533 54.704 267.704C56.24 266.68 58.288 266.04 60.848 265.784C63.3227 265.443 65.4987 265.571 67.376 266.168C66.2667 265.315 64.8587 264.589 63.152 263.992C61.5307 263.395 60.0373 263.224 58.672 263.48C59.952 262.968 61.488 262.712 63.28 262.712C65.072 262.627 66.5653 262.925 67.76 263.608C67.1627 262.328 66.096 260.92 64.56 259.384C63.024 257.848 61.5733 256.909 60.208 256.568C61.4027 255.8 63.1093 255.373 65.328 255.288C67.5467 255.117 69.296 255.331 70.576 255.928C70.2347 254.648 69.4667 253.325 68.272 251.96C67.1627 250.595 66.0533 249.571 64.944 248.888C66.224 248.717 67.7173 248.931 69.424 249.528C71.216 250.04 72.5387 250.765 73.392 251.704C72.2827 250.509 71.216 248.888 70.192 246.84C69.168 244.792 68.5707 242.957 68.4 241.336C69.2533 242.701 70.704 243.981 72.752 245.176C74.8 246.285 76.6773 246.925 78.384 247.096C77.2747 245.731 76.5493 243.768 76.208 241.208C75.8667 238.648 75.9093 236.515 76.336 234.808C77.0187 236.429 78.2987 238.093 80.176 239.8C82.1387 241.421 83.9307 242.573 85.552 243.256C85.1253 241.805 85.168 239.928 85.68 237.624C86.192 235.32 86.9173 233.613 87.856 232.504C88.368 233.869 89.3493 235.491 90.8 237.368C92.2507 239.16 93.6587 240.312 95.024 240.824C95.024 240.056 95.28 239.117 95.792 238.008C96.304 236.813 96.8587 235.96 97.456 235.448C97.5413 236.216 97.9253 237.155 98.608 238.264C99.2907 239.288 99.9733 240.013 100.656 240.44C100.741 238.648 101.253 236.557 102.192 234.168C103.216 231.779 104.411 229.987 105.776 228.792C105.52 230.584 105.776 232.717 106.544 235.192C107.312 237.667 108.293 239.587 109.488 240.952C111.024 239.928 112.432 238.307 113.712 236.088C115.077 233.869 115.845 231.864 116.016 230.072C116.699 231.608 117.168 233.528 117.424 235.832C117.765 238.136 117.723 240.141 117.296 241.848C117.808 240.312 118.789 238.819 120.24 237.368C121.691 235.832 123.056 234.723 124.336 234.04C123.483 235.405 122.928 237.24 122.672 239.544C122.501 241.848 122.672 243.811 123.184 245.432C124.464 245.091 125.787 244.237 127.152 242.872C128.603 241.507 129.541 240.184 129.968 238.904C130.139 241.208 129.584 243.555 128.304 245.944C129.499 244.664 130.779 243.811 132.144 243.384C131.376 243.981 130.651 244.92 129.968 246.2C129.371 247.395 129.072 248.461 129.072 249.4C130.096 249.485 131.333 249.229 132.784 248.632C134.32 248.035 135.429 247.309 136.112 246.456C136.197 247.565 135.899 248.845 135.216 250.296C134.533 251.661 133.808 252.728 133.04 253.496C134.235 252.813 135.941 252.515 138.16 252.6C140.379 252.6 142.085 252.899 143.28 253.496C142.171 254.349 140.976 255.672 139.696 257.464C138.501 259.171 137.776 260.707 137.52 262.072C138.203 263.181 139.312 264.205 140.848 265.144C142.469 266.083 143.92 266.637 145.2 266.808C144.005 267.32 142.512 267.491 140.72 267.32C138.928 267.064 137.435 266.637 136.24 266.04C136.581 267.32 136.581 268.771 136.24 270.392C135.984 272.013 135.557 273.379 134.96 274.488C135.216 273.293 135.173 271.885 134.832 270.264C134.491 268.557 133.936 267.192 133.168 266.168C132.571 267.107 132.059 268.301 131.632 269.752C131.291 271.203 131.205 272.483 131.376 273.592C130.693 272.739 130.181 271.587 129.84 270.136C129.499 268.6 129.413 267.277 129.584 266.168C128.816 267.021 128.091 268.216 127.408 269.752C126.725 271.288 126.427 272.611 126.512 273.72C125.744 272.952 125.019 271.8 124.336 270.264C123.653 268.643 123.355 267.277 123.44 266.168C122.843 267.277 122.416 268.685 122.16 270.392C121.904 272.099 121.947 273.592 122.288 274.872C121.605 273.763 121.093 272.355 120.752 270.648C120.411 268.941 120.453 267.576 120.88 266.552C120.368 267.917 119.557 268.984 118.448 269.752C118.363 269.24 118.021 268.6 117.424 267.832C116.827 266.979 116.315 266.424 115.888 266.168C115.461 266.595 115.035 267.192 114.608 267.96C114.267 268.728 114.096 269.411 114.096 270.008C113.669 269.667 113.243 269.112 112.816 268.344C112.475 267.491 112.304 266.765 112.304 266.168C111.877 266.765 111.195 267.405 110.256 268.088C109.403 268.771 108.549 269.283 107.696 269.624V269.752L107.568 269.624C107.056 269.88 106.587 270.051 106.16 270.136C106.245 269.965 106.331 269.795 106.416 269.624C104.709 269.709 102.789 270.051 100.656 270.648C98.608 271.245 96.9867 272.056 95.792 273.08C96.9013 273.08 98.224 273.421 99.76 274.104C101.296 274.787 102.405 275.512 103.088 276.28C101.979 276.365 100.656 276.792 99.12 277.56C97.6693 278.328 96.6453 279.139 96.048 279.992C97.4133 279.224 99.248 278.755 101.552 278.584C103.856 278.328 105.776 278.371 107.312 278.712C105.947 279.395 104.539 280.504 103.088 282.04C104.197 283.747 105.392 285.027 106.672 285.88C107.013 285.368 107.269 284.472 107.44 283.192C107.611 281.912 107.611 281.016 107.44 280.504C107.952 280.333 108.848 280.333 110.128 280.504C111.408 280.675 112.304 280.931 112.816 281.272C113.669 280.76 114.651 279.779 115.76 278.328C116.869 276.792 117.509 275.512 117.68 274.488C118.533 275 119.515 275.981 120.624 277.432C121.733 278.883 122.331 280.035 122.416 280.888C122.245 280.035 122.288 279.053 122.544 277.944C122.885 276.835 123.269 275.939 123.696 275.256C123.525 276.109 123.568 277.133 123.824 278.328C124.08 279.523 124.464 280.504 124.976 281.272C125.147 280.504 125.659 279.565 126.512 278.456C127.365 277.261 128.133 276.536 128.816 276.28C128.987 277.048 129.499 277.987 130.352 279.096C131.291 280.12 132.059 280.845 132.656 281.272C133.253 280.675 133.723 279.821 134.064 278.712C134.491 277.603 134.661 276.664 134.576 275.896C135.173 276.493 135.643 277.347 135.984 278.456C136.325 279.565 136.453 280.547 136.368 281.4C136.795 282.253 137.733 283.192 139.184 284.216C140.635 285.155 141.872 285.752 142.896 286.008C142.299 286.861 141.189 287.715 139.568 288.568C138.032 289.336 136.752 289.72 135.728 289.72C135.728 291 136.155 292.536 137.008 294.328C137.861 296.12 138.757 297.4 139.696 298.168C138.501 298.509 136.923 298.509 134.96 298.168C132.997 297.741 131.504 297.229 130.48 296.632C131.589 297.997 132.443 300.003 133.04 302.648C133.723 305.293 133.893 307.469 133.552 309.176C132.528 307.725 130.864 306.275 128.56 304.824C126.341 303.373 124.336 302.563 122.544 302.392C123.397 304.013 123.952 306.019 124.208 308.408C124.549 310.883 124.507 313.016 124.08 314.808C123.568 313.016 122.544 311.139 121.008 309.176C119.557 307.213 118.021 305.805 116.4 304.952C115.547 306.403 114.992 308.28 114.736 310.584C114.48 312.973 114.565 314.979 114.992 316.6C113.541 315.747 112.176 314.253 110.896 312.12C109.616 310.072 108.933 308.195 108.848 306.488C107.909 307.427 107.099 308.835 106.416 310.712C105.819 312.675 105.605 314.339 105.776 315.704C105.093 315.192 104.325 314.381 103.472 313.272C102.704 312.248 101.595 311.139 100.144 309.944C98.7787 308.749 96.9013 307.597 94.512 306.488ZM99.76 260.28C99.9307 261.133 100.357 262.115 101.04 263.224C100.699 261.859 100.272 260.877 99.76 260.28ZM107.44 262.84C107.184 263.437 106.672 264.077 105.904 264.76C105.136 265.443 104.368 265.997 103.6 266.424C104.197 267.021 104.496 267.277 104.496 267.192C105.435 267.704 106.203 268.216 106.8 268.728C107.141 267.875 107.355 266.893 107.44 265.784C107.611 264.675 107.611 263.693 107.44 262.84ZM148.665 300.984C146.873 301.411 144.782 301.411 142.393 300.984C140.004 300.472 138.041 299.704 136.505 298.68C138.297 299.021 140.388 298.979 142.777 298.552C145.166 298.125 147.129 297.4 148.665 296.376C147.556 295.693 146.148 295.181 144.441 294.84C142.734 294.413 141.284 294.413 140.089 294.84C140.942 294.157 142.094 293.688 143.545 293.432C141.753 293.091 140.345 292.536 139.321 291.768C140.686 292.024 142.308 292.067 144.185 291.896C146.062 291.64 147.556 291.085 148.665 290.232C147.726 290.488 146.617 290.488 145.337 290.232C144.057 289.976 143.076 289.549 142.393 288.952C143.332 289.123 144.398 289.08 145.593 288.824C146.873 288.568 147.897 288.184 148.665 287.672C146.788 287.928 144.569 287.672 142.009 286.904C139.449 286.136 137.529 285.112 136.249 283.832C138.126 284.088 140.302 283.832 142.777 283.064C145.337 282.296 147.3 281.272 148.665 279.992C147.3 279.053 145.508 278.243 143.289 277.56C141.156 276.877 139.278 276.664 137.657 276.92C138.596 276.237 139.748 275.597 141.113 275C142.478 274.403 143.844 274.019 145.209 273.848C142.82 273.507 140.942 272.739 139.577 271.544C140.942 271.715 142.521 271.587 144.313 271.16C146.105 270.648 147.556 270.008 148.665 269.24C146.873 269.752 144.697 269.709 142.137 269.112C139.662 268.429 137.7 267.533 136.249 266.424C138.041 266.936 140.174 266.893 142.649 266.296C145.209 265.699 147.214 264.803 148.665 263.608C147.726 262.84 146.404 262.243 144.697 261.816C142.99 261.389 141.497 261.304 140.217 261.56C141.07 260.877 142.222 260.365 143.673 260.024C140.772 259.768 138.468 259 136.761 257.72C138.468 258.317 140.516 258.445 142.905 258.104C145.294 257.763 147.214 257.037 148.665 255.928C147.556 254.563 145.806 253.496 143.417 252.728C141.028 251.875 138.98 251.405 137.273 251.32C138.468 250.125 140.217 249.059 142.521 248.12C144.91 247.096 146.958 246.627 148.665 246.712C147.897 245.859 146.702 245.048 145.081 244.28C143.46 243.512 142.052 243.128 140.857 243.128C141.625 242.189 142.82 241.379 144.441 240.696C146.062 240.013 147.47 239.629 148.665 239.544C147.385 239.629 145.849 239.288 144.057 238.52C142.265 237.752 140.942 236.899 140.089 235.96C141.369 235.96 142.905 235.619 144.697 234.936C146.574 234.253 147.897 233.4 148.665 232.376C148.324 231.693 147.513 230.84 146.233 229.816C145.038 228.707 144.057 228.024 143.289 227.768C143.63 227 144.398 226.104 145.593 225.08C146.873 223.971 147.897 223.331 148.665 223.16C148.836 222.392 148.793 221.325 148.537 219.96C148.281 218.509 147.897 217.443 147.385 216.76C148.153 216.504 149.262 216.461 150.713 216.632C152.164 216.717 153.23 216.973 153.913 217.4C154.254 217.059 154.638 216.248 155.065 214.968C155.577 213.688 156.046 212.28 156.473 210.744C156.9 209.123 157.241 207.672 157.497 206.392C157.753 205.027 157.838 204.088 157.753 203.576C158.009 204.003 158.35 204.856 158.777 206.136C159.289 207.416 159.758 208.824 160.185 210.36C160.697 211.896 161.081 213.347 161.337 214.712C161.593 215.992 161.678 216.888 161.593 217.4C162.446 215.949 163.001 214.157 163.257 212.024C163.513 209.805 163.342 207.885 162.745 206.264C163.513 207.8 164.068 209.677 164.409 211.896C164.75 214.029 164.622 215.864 164.025 217.4C165.134 216.461 166.073 215.011 166.841 213.048C167.694 211.085 168.121 209.379 168.121 207.928C169.23 208.867 170.212 210.317 171.065 212.28C171.918 214.243 172.302 215.949 172.217 217.4C172.9 217.229 173.924 217.272 175.289 217.528C176.74 217.699 177.764 217.997 178.361 218.424C177.849 218.936 177.294 219.832 176.697 221.112C176.185 222.392 175.929 223.416 175.929 224.184C176.868 224.184 177.977 224.483 179.257 225.08C180.537 225.677 181.476 226.317 182.073 227C181.134 227 180.025 227.299 178.745 227.896C177.465 228.408 176.526 229.048 175.929 229.816C176.953 229.987 178.233 230.584 179.769 231.608C181.305 232.547 182.372 233.485 182.969 234.424C181.945 234.595 180.622 235.192 179.001 236.216C177.465 237.155 176.441 238.093 175.929 239.032C176.27 239.715 177.038 240.483 178.233 241.336C179.513 242.104 180.537 242.531 181.305 242.616C180.878 243.299 180.068 244.067 178.873 244.92C177.678 245.688 176.697 246.115 175.929 246.2C176.953 247.139 178.404 247.907 180.281 248.504C182.244 249.016 183.908 249.101 185.273 248.76C184.164 249.613 182.67 250.296 180.793 250.808C178.916 251.32 177.294 251.491 175.929 251.32C177.124 252.344 178.745 253.197 180.793 253.88C182.926 254.477 184.761 254.733 186.297 254.648C185.102 255.587 183.438 256.397 181.305 257.08C179.257 257.763 177.465 258.061 175.929 257.976C176.953 258.147 178.19 258.659 179.641 259.512C181.092 260.365 182.158 261.219 182.841 262.072C181.817 262.243 180.537 262.755 179.001 263.608C177.55 264.461 176.526 265.315 175.929 266.168C177.465 266.168 179.257 266.595 181.305 267.448C183.353 268.216 184.889 269.155 185.913 270.264C184.462 270.093 182.713 270.477 180.665 271.416C178.617 272.355 177.038 273.336 175.929 274.36C177.636 274.104 179.684 274.403 182.073 275.256C184.548 276.109 186.34 277.176 187.449 278.456C185.742 278.2 183.694 278.541 181.305 279.48C178.916 280.333 177.124 281.357 175.929 282.552C177.38 283.661 179.3 284.429 181.689 284.856C184.164 285.197 186.254 285.112 187.961 284.6C185.828 285.965 183.225 286.776 180.153 287.032C182.884 287.629 185.145 288.611 186.937 289.976C185.316 289.72 183.353 289.933 181.049 290.616C178.83 291.299 177.124 292.195 175.929 293.304C176.782 294.243 178.062 295.053 179.769 295.736C181.561 296.419 183.097 296.803 184.377 296.888C183.524 297.827 182.201 298.68 180.409 299.448C178.702 300.216 177.209 300.557 175.929 300.472C175.929 301.24 176.27 302.221 176.953 303.416C177.636 304.525 178.276 305.336 178.873 305.848C178.19 306.275 177.166 306.445 175.801 306.36C174.521 306.275 173.497 306.061 172.729 305.72C172.388 306.317 172.046 307.427 171.705 309.048C171.364 310.755 171.022 312.589 170.681 314.552C170.425 316.6 170.254 318.435 170.169 320.056C170.169 321.763 170.254 322.957 170.425 323.64C170.084 323.043 169.742 321.891 169.401 320.184C169.06 318.563 168.718 316.728 168.377 314.68C168.121 312.717 167.95 310.883 167.865 309.176C167.865 307.469 167.95 306.317 168.121 305.72C167.097 306.829 166.158 308.408 165.305 310.456C164.452 312.589 164.11 314.424 164.281 315.96C163.257 314.851 162.318 313.229 161.465 311.096C160.697 309.048 160.398 307.256 160.569 305.72C159.801 306.488 159.161 307.555 158.649 308.92C158.137 310.371 157.924 311.608 158.009 312.632C157.241 311.949 156.601 310.883 156.089 309.432C155.662 307.981 155.449 306.744 155.449 305.72C154.681 306.573 154.084 307.768 153.657 309.304C153.23 310.925 153.06 312.291 153.145 313.4C152.462 312.461 151.737 311.011 150.969 309.048C150.286 307.171 149.518 304.483 148.665 300.984ZM207.96 306.488C207.533 308.365 206.339 310.243 204.376 312.12C202.413 314.083 200.579 315.491 198.872 316.344C199.811 314.723 200.323 312.504 200.408 309.688C200.493 306.957 200.195 304.739 199.512 303.032C198.317 304.312 196.525 305.421 194.136 306.36C191.832 307.299 189.827 307.683 188.12 307.512C189.485 306.573 190.723 304.952 191.832 302.648C192.941 300.344 193.539 298.296 193.624 296.504C192.856 297.272 191.747 297.912 190.296 298.424C188.931 298.851 187.693 298.979 186.584 298.808C187.608 298.552 188.675 297.997 189.784 297.144C190.979 296.205 191.875 295.267 192.472 294.328C190.851 294.925 188.803 295.096 186.328 294.84C183.939 294.499 181.976 293.987 180.44 293.304C182.061 292.877 183.853 291.939 185.816 290.488C187.779 288.952 189.144 287.416 189.912 285.88C188.717 285.709 187.267 285.197 185.56 284.344C183.853 283.491 182.616 282.595 181.848 281.656C183.043 281.485 184.408 280.845 185.944 279.736C187.565 278.627 188.717 277.603 189.4 276.664C187.949 275.555 186.029 274.616 183.64 273.848C181.251 272.995 179.16 272.739 177.368 273.08C178.733 271.885 180.611 270.904 183 270.136C185.475 269.368 187.608 269.155 189.4 269.496C188.547 268.813 187.352 268.344 185.816 268.088C184.365 267.747 183.085 267.704 181.976 267.96C182.659 267.448 183.555 267.064 184.664 266.808C185.859 266.467 186.968 266.296 187.992 266.296C186.285 266.04 184.451 265.485 182.488 264.632C180.525 263.693 179.032 262.669 178.008 261.56C179.715 261.475 181.72 260.963 184.024 260.024C186.328 259 188.12 257.891 189.4 256.696C188.717 255.672 187.48 254.691 185.688 253.752C183.896 252.813 182.36 252.259 181.08 252.088C182.445 250.381 184.408 249.016 186.968 247.992C185.261 248.248 183.469 248.205 181.592 247.864C179.629 247.437 178.008 246.797 176.728 245.944C178.605 246.371 180.739 246.456 183.128 246.2C185.603 245.859 187.693 245.261 189.4 244.408C189.571 243.469 189.443 242.403 189.016 241.208C188.675 239.928 188.248 238.904 187.736 238.136C188.589 238.307 189.571 238.776 190.68 239.544C191.875 240.227 192.685 240.952 193.112 241.72C192.941 239.843 193.283 237.624 194.136 235.064C194.989 232.504 196.099 230.541 197.464 229.176C197.208 231.053 197.507 233.315 198.36 235.96C199.213 238.52 200.365 240.44 201.816 241.72C202.84 240.781 203.821 239.331 204.76 237.368C205.784 235.405 206.296 233.699 206.296 232.248C207.405 233.187 208.429 234.637 209.368 236.6C210.307 238.563 210.819 240.269 210.904 241.72C211.587 240.611 212.141 239.203 212.568 237.496C213.08 235.789 213.123 234.339 212.696 233.144C213.549 234.168 214.147 235.533 214.488 237.24C214.829 238.947 214.829 240.44 214.488 241.72C214.915 240.867 215.725 240.056 216.92 239.288C218.115 238.52 219.181 238.051 220.12 237.88C219.523 238.648 219.011 239.715 218.584 241.08C218.243 242.36 218.115 243.469 218.2 244.408C218.968 245.176 220.077 245.901 221.528 246.584C222.979 247.181 224.259 247.48 225.368 247.48C224.6 248.163 223.491 248.888 222.04 249.656C220.589 250.339 219.309 250.595 218.2 250.424C219.224 251.277 220.589 252.003 222.296 252.6C224.088 253.112 225.667 253.24 227.032 252.984C226.008 253.837 224.6 254.52 222.808 255.032C221.016 255.544 219.523 255.715 218.328 255.544C218.925 255.629 219.651 255.928 220.504 256.44C221.357 256.867 221.955 257.336 222.296 257.848C221.699 257.848 220.931 258.104 219.992 258.616C219.139 259.128 218.541 259.64 218.2 260.152C218.456 260.664 219.011 261.389 219.864 262.328C220.717 263.181 221.4 263.693 221.912 263.864C221.741 264.461 221.187 265.187 220.248 266.04C219.395 266.893 218.712 267.448 218.2 267.704C218.712 268.131 219.437 268.472 220.376 268.728C221.315 268.984 222.125 269.069 222.808 268.984C222.211 269.411 221.443 269.752 220.504 270.008C219.651 270.179 218.883 270.264 218.2 270.264C218.712 270.349 219.352 270.605 220.12 271.032C220.973 271.373 221.571 271.8 221.912 272.312C221.315 272.397 220.632 272.653 219.864 273.08C219.096 273.421 218.541 273.805 218.2 274.232C219.053 274.147 220.035 274.36 221.144 274.872C222.253 275.299 223.107 275.768 223.704 276.28C222.851 276.28 221.869 276.493 220.76 276.92C219.651 277.347 218.797 277.816 218.2 278.328C219.736 277.731 221.528 277.645 223.576 278.072C223.747 276.024 223.875 273.891 223.96 271.672C224.045 269.453 224.045 267.491 223.96 265.784C223.96 263.992 223.832 262.712 223.576 261.944C223.32 261.944 223.107 261.901 222.936 261.816C223.277 261.389 224.216 260.835 225.752 260.152C227.288 259.384 228.824 258.701 230.36 258.104C231.981 257.421 233.048 257.08 233.56 257.08C233.133 256.653 232.493 256.269 231.64 255.928C230.787 255.587 230.061 255.459 229.464 255.544C229.891 255.032 230.531 254.648 231.384 254.392C232.237 254.051 232.963 253.923 233.56 254.008C232.707 253.411 231.597 252.856 230.232 252.344C228.867 251.747 227.672 251.533 226.648 251.704C227.331 250.936 228.397 250.381 229.848 250.04C231.299 249.613 232.536 249.443 233.56 249.528C232.707 249.272 231.683 248.632 230.488 247.608C229.293 246.584 228.483 245.645 228.056 244.792C228.995 244.792 230.147 244.493 231.512 243.896C232.963 243.299 233.987 242.659 234.584 241.976C234.413 240.867 234.499 239.501 234.84 237.88C235.181 236.259 235.736 234.979 236.504 234.04C236.419 235.235 236.632 236.6 237.144 238.136C237.741 239.672 238.467 240.867 239.32 241.72C239.149 240.355 239.405 238.733 240.088 236.856C240.771 234.979 241.581 233.571 242.52 232.632C242.349 233.997 242.605 235.619 243.288 237.496C243.971 239.373 244.824 240.781 245.848 241.72C245.677 240.781 245.72 239.715 245.976 238.52C246.232 237.24 246.616 236.216 247.128 235.448C246.872 236.387 246.872 237.496 247.128 238.776C247.469 239.971 247.896 240.952 248.408 241.72C249.347 240.184 249.901 238.221 250.072 235.832C250.243 233.443 250.115 231.352 249.688 229.56C250.541 231.181 251.053 233.187 251.224 235.576C251.48 237.88 251.395 239.928 250.968 241.72C251.139 240.952 251.651 239.971 252.504 238.776C253.443 237.496 254.253 236.685 254.936 236.344C255.192 237.112 255.747 238.136 256.6 239.416C257.453 240.611 258.264 241.379 259.032 241.72C259.544 241.123 260.355 240.653 261.464 240.312C262.573 239.885 263.512 239.672 264.28 239.672C263.768 240.184 263.299 240.995 262.872 242.104C262.445 243.213 262.232 244.152 262.232 244.92C263.171 244.92 264.323 245.304 265.688 246.072C267.139 246.755 268.163 247.48 268.76 248.248C267.821 248.333 266.627 248.717 265.176 249.4C263.811 250.083 262.829 250.808 262.232 251.576C263.512 252.429 265.176 252.941 267.224 253.112C269.272 253.283 271.064 253.197 272.6 252.856C271.32 253.709 269.656 254.221 267.608 254.392C265.56 254.563 263.768 254.477 262.232 254.136C262.915 255.245 264.195 256.312 266.072 257.336C268.035 258.36 269.656 258.872 270.936 258.872C270.253 259.981 268.931 261.048 266.968 262.072C265.091 263.096 263.512 263.651 262.232 263.736C263.171 264.845 264.664 265.784 266.712 266.552C268.76 267.32 270.509 267.661 271.96 267.576C270.936 268.6 269.4 269.496 267.352 270.264C265.389 271.032 263.683 271.416 262.232 271.416C263.683 272.44 265.56 273.123 267.864 273.464C270.253 273.72 272.301 273.635 274.008 273.208C272.472 274.147 270.552 274.829 268.248 275.256C265.944 275.597 263.939 275.512 262.232 275C263.597 276.024 265.432 276.877 267.736 277.56C270.125 278.157 272.173 278.243 273.88 277.816C273.027 278.584 271.917 279.224 270.552 279.736C269.187 280.163 267.821 280.461 266.456 280.632C268.419 280.803 270.424 281.101 272.472 281.528C274.605 281.869 275.971 282.253 276.568 282.68C276.056 282.509 275.117 282.467 273.752 282.552C272.387 282.552 270.893 282.68 269.272 282.936C267.651 283.192 266.157 283.491 264.792 283.832C263.512 284.088 262.659 284.387 262.232 284.728C264.109 284.557 266.371 284.941 269.016 285.88C271.661 286.733 273.624 287.843 274.904 289.208C273.027 288.952 270.765 289.336 268.12 290.36C265.475 291.299 263.512 292.451 262.232 293.816C263.597 293.901 265.261 294.456 267.224 295.48C269.187 296.504 270.552 297.571 271.32 298.68C269.955 298.851 268.291 299.448 266.328 300.472C264.451 301.411 263.085 302.435 262.232 303.544C261.379 304.995 260.909 306.957 260.824 309.432C260.739 311.907 261.08 313.912 261.848 315.448C260.312 314.68 258.861 313.272 257.496 311.224C256.131 309.261 255.277 307.469 254.936 305.848C255.277 307.299 255.277 309.005 254.936 310.968C254.68 312.931 254.083 314.467 253.144 315.576C253.485 314.125 253.443 312.419 253.016 310.456C252.675 308.579 252.12 307 251.352 305.72C251.523 306.317 251.437 307.555 251.096 309.432C250.84 311.395 250.456 313.315 249.944 315.192C249.432 317.069 249.005 318.264 248.664 318.776C248.749 318.179 248.621 316.899 248.28 314.936C248.024 313.059 247.64 311.181 247.128 309.304C246.701 307.427 246.275 306.232 245.848 305.72C244.483 306.915 243.288 308.707 242.264 311.096C241.325 313.485 240.856 315.576 240.856 317.368C240.003 316.6 239.235 315.576 238.552 314.296C237.955 313.016 237.443 311.651 237.016 310.2C236.248 308.749 235.011 307.341 233.304 305.976C231.683 304.611 230.147 303.629 228.696 303.032C229.123 304.312 229.208 306.061 228.952 308.28C228.696 310.499 228.184 312.163 227.416 313.272C226.819 312.077 225.667 310.755 223.96 309.304C222.339 307.853 220.888 306.915 219.608 306.488C219.779 307.597 219.565 308.963 218.968 310.584C218.371 312.205 217.688 313.443 216.92 314.296C216.835 313.101 216.152 311.736 214.872 310.2C213.677 308.749 211.373 307.512 207.96 306.488ZM233.56 266.68C233.219 266.339 232.408 265.827 231.128 265.144C229.848 264.461 228.44 263.821 226.904 263.224C225.453 262.627 224.344 262.2 223.576 261.944C224.003 262.541 224.557 263.608 225.24 265.144C225.923 266.595 226.605 268.259 227.288 270.136C228.397 269.88 229.549 269.411 230.744 268.728C231.939 268.045 232.877 267.363 233.56 266.68ZM233.56 273.72C231.853 273.805 230.019 273.251 228.056 272.056C228.397 273.165 228.739 274.232 229.08 275.256C230.701 274.317 232.195 273.805 233.56 273.72ZM233.56 279.352C232.707 278.328 231.384 277.517 229.592 276.92C229.848 277.603 230.061 278.2 230.232 278.712C231.597 278.797 232.707 279.011 233.56 279.352ZM218.584 281.656C219.949 281.827 221.528 281.528 223.32 280.76C223.405 280.248 223.491 279.736 223.576 279.224C222.637 279.395 221.699 279.693 220.76 280.12C219.821 280.547 219.096 281.059 218.584 281.656ZM310.594 305.464C309.314 306.147 308.034 307.384 306.754 309.176C305.559 311.053 304.834 312.675 304.578 314.04C303.725 312.845 303.042 311.224 302.53 309.176C302.018 307.128 301.847 305.379 302.018 303.928C300.311 304.952 298.861 306.573 297.666 308.792C296.557 311.096 295.874 313.187 295.618 315.064C295.021 313.272 295.021 311.096 295.618 308.536C296.215 306.061 297.026 304.056 298.05 302.52C297.453 302.947 296.471 303.416 295.106 303.928C293.826 304.44 292.802 304.611 292.034 304.44C292.375 303.757 292.503 302.691 292.418 301.24C292.333 299.789 292.119 298.723 291.778 298.04C290.669 298.893 289.133 299.619 287.17 300.216C285.207 300.813 283.586 300.899 282.306 300.472C283.415 299.789 284.567 298.637 285.762 297.016C286.957 295.395 287.682 293.901 287.938 292.536C286.999 292.792 285.719 292.707 284.098 292.28C282.562 291.768 281.453 291.213 280.77 290.616C281.623 290.275 282.605 289.507 283.714 288.312C284.909 287.117 285.634 286.051 285.89 285.112C284.183 285.368 282.178 285.24 279.874 284.728C277.57 284.131 275.735 283.363 274.37 282.424C276.077 282.595 278.039 282.296 280.258 281.528C282.562 280.76 284.311 279.736 285.506 278.456C284.397 278.456 283.074 278.072 281.538 277.304C280.002 276.536 278.893 275.725 278.21 274.872C278.466 274.872 278.765 274.829 279.106 274.744C278.765 273.976 278.423 272.909 278.082 271.544C277.741 270.093 277.442 268.685 277.186 267.32C276.589 267.235 276.077 267.192 275.65 267.192C275.991 266.851 276.418 266.509 276.93 266.168C276.589 263.864 276.461 262.328 276.546 261.56C275.693 261.219 274.498 261.219 272.962 261.56C271.511 261.816 270.359 262.157 269.506 262.584C269.421 261.645 269.634 260.451 270.146 259C270.658 257.549 271.255 256.525 271.938 255.928C270.999 256.099 269.933 255.971 268.738 255.544C267.458 255.032 266.477 254.477 265.794 253.88C266.733 253.965 267.799 253.795 268.994 253.368C270.189 252.941 271.17 252.429 271.938 251.832C270.487 252.003 268.781 251.704 266.818 250.936C264.77 250.083 263.191 249.144 262.082 248.12C263.533 248.205 265.282 247.864 267.33 247.096C269.293 246.328 270.829 245.432 271.938 244.408C272.365 243.469 272.621 242.232 272.706 240.696C272.791 239.075 272.663 237.795 272.322 236.856C273.261 237.112 274.327 237.795 275.522 238.904C276.717 239.928 277.57 240.867 278.082 241.72C278.594 241.379 279.149 240.824 279.746 240.056C278.295 239.288 277.186 238.477 276.418 237.624C277.101 237.709 277.869 237.709 278.722 237.624C279.661 237.453 280.599 237.197 281.538 236.856V236.6C281.623 236.685 281.709 236.728 281.794 236.728C283.33 236.131 284.567 235.448 285.506 234.68C284.055 234.851 282.306 234.509 280.258 233.656C278.21 232.803 276.631 231.864 275.522 230.84C276.973 231.096 278.722 230.797 280.77 229.944C282.903 229.091 284.482 228.152 285.506 227.128C283.885 227.469 281.965 227.427 279.746 227C277.613 226.573 275.906 225.848 274.626 224.824C276.247 225.08 278.125 224.995 280.258 224.568C282.391 224.141 284.141 223.501 285.506 222.648C284.567 222.733 283.458 222.52 282.178 222.008C280.983 221.411 280.045 220.771 279.362 220.088C280.301 220.173 281.41 220.045 282.69 219.704C283.97 219.363 284.994 218.936 285.762 218.424C285.079 217.059 284.738 215.309 284.738 213.176C284.738 211.043 285.037 209.251 285.634 207.8C285.719 209.336 286.189 211.085 287.042 213.048C287.981 214.925 289.047 216.376 290.242 217.4C291.01 216.717 291.607 215.693 292.034 214.328C292.546 212.963 292.802 211.768 292.802 210.744C293.314 211.256 293.783 212.024 294.21 213.048C294.722 214.072 295.063 215.053 295.234 215.992C295.149 214.115 295.405 212.109 296.002 209.976C296.599 207.843 297.495 206.179 298.69 204.984C298.434 206.861 298.605 209.037 299.202 211.512C299.885 213.987 300.781 215.949 301.89 217.4C301.975 215.949 302.487 214.243 303.426 212.28C304.365 210.232 305.346 208.653 306.37 207.544C306.285 209.08 306.711 210.872 307.65 212.92C308.589 214.968 309.613 216.504 310.722 217.528C311.319 216.76 312.215 216.077 313.41 215.48C314.605 214.883 315.714 214.584 316.738 214.584C315.799 215.011 314.861 215.736 313.922 216.76C313.069 217.699 312.514 218.637 312.258 219.576C313.367 219.747 314.69 220.344 316.226 221.368C317.847 222.307 318.957 223.203 319.554 224.056C318.445 224.312 317.079 224.909 315.458 225.848C313.922 226.787 312.855 227.725 312.258 228.664C313.367 228.579 314.647 228.792 316.098 229.304C317.634 229.731 318.786 230.328 319.554 231.096C318.445 231.096 317.122 231.352 315.586 231.864C314.135 232.291 313.026 232.888 312.258 233.656C313.709 234.595 315.586 235.277 317.89 235.704C318.829 234.936 319.341 234.424 319.426 234.168V233.912L319.554 234.04L319.682 233.656C319.767 233.912 319.767 234.125 319.682 234.296C320.109 234.723 320.535 235.32 320.962 236.088C321.986 236.088 322.925 236.045 323.778 235.96C323.095 236.387 322.327 236.771 321.474 237.112C322.242 238.904 322.583 240.44 322.498 241.72C322.669 240.44 323.351 238.989 324.546 237.368C325.826 235.747 326.978 234.637 328.002 234.04C327.917 235.235 328.258 236.771 329.026 238.648C329.879 240.525 330.733 241.891 331.586 242.744C333.463 242.317 335.682 242.36 338.242 242.872C340.802 243.384 342.85 244.195 344.386 245.304C342.509 245.048 340.29 245.261 337.73 245.944C335.17 246.541 333.207 247.523 331.842 248.888C333.549 248.632 335.554 248.845 337.858 249.528C340.247 250.211 342.082 251.149 343.362 252.344C341.655 252.003 339.607 252.216 337.218 252.984C334.914 253.752 333.122 254.733 331.842 255.928C332.781 256.44 333.634 257.421 334.402 258.872C335.255 260.323 335.767 261.56 335.938 262.584C334.999 262.072 333.719 261.688 332.098 261.432C330.477 261.091 329.154 261.133 328.13 261.56C327.618 262.413 327.149 263.523 326.722 264.888C326.381 266.168 326.338 267.277 326.594 268.216C325.997 267.448 325.57 266.424 325.314 265.144C325.058 263.779 324.973 262.584 325.058 261.56C324.717 261.987 324.247 263.011 323.65 264.632C323.053 266.253 322.541 267.917 322.114 269.624C321.687 271.245 321.474 272.312 321.474 272.824C321.218 272.568 320.877 271.971 320.45 271.032C320.109 270.008 319.725 268.899 319.298 267.704C318.274 268.301 317.079 268.813 315.714 269.24C314.349 269.581 313.197 269.752 312.258 269.752C313.197 270.605 314.562 271.416 316.354 272.184C318.146 272.867 319.682 273.165 320.962 273.08C320.023 273.933 318.658 274.701 316.866 275.384C315.074 276.067 313.538 276.408 312.258 276.408C313.538 277.005 315.117 277.389 316.994 277.56C318.957 277.645 320.578 277.475 321.858 277.048C321.261 277.901 320.407 278.712 319.298 279.48C319.725 280.163 320.066 281.016 320.322 282.04C320.578 282.979 320.663 283.832 320.578 284.6C320.663 283.32 321.218 281.784 322.242 279.992C323.266 278.115 324.29 276.749 325.314 275.896C325.57 277.176 326.167 278.755 327.106 280.632C328.13 282.509 329.154 283.832 330.178 284.6C330.861 284.6 331.885 284.813 333.25 285.24C334.615 285.581 335.511 286.008 335.938 286.52C335.426 286.947 334.786 287.757 334.018 288.952C333.335 290.147 332.951 291.128 332.866 291.896C334.402 291.555 336.237 291.64 338.37 292.152C340.503 292.664 342.21 293.432 343.49 294.456C341.954 294.115 340.119 294.243 337.986 294.84C335.938 295.352 334.231 296.035 332.866 296.888C333.975 298.083 335.639 299.021 337.858 299.704C340.077 300.301 341.954 300.472 343.49 300.216C342.295 301.325 340.631 302.221 338.498 302.904C336.365 303.501 334.487 303.715 332.866 303.544C333.719 304.397 334.445 305.592 335.042 307.128C335.639 308.749 335.938 310.157 335.938 311.352C335.511 310.243 334.658 309.091 333.378 307.896C332.098 306.701 330.861 305.976 329.666 305.72C328.557 307.256 327.789 309.261 327.362 311.736C326.935 314.296 327.063 316.472 327.746 318.264C326.978 317.155 326.381 315.832 325.954 314.296C325.613 312.76 325.442 311.224 325.442 309.688C325.186 310.712 324.845 311.736 324.418 312.76C323.991 313.784 323.522 314.637 323.01 315.32C323.095 313.869 322.882 312.163 322.37 310.2C321.943 308.237 321.218 306.744 320.194 305.72C320.365 306.744 320.237 307.939 319.81 309.304C319.469 310.755 318.957 311.907 318.274 312.76C318.359 311.736 317.933 310.499 316.994 309.048C316.141 307.597 314.007 306.403 310.594 305.464ZM316.354 241.72C316.61 241.464 316.866 241.165 317.122 240.824C316.866 241.165 316.61 241.464 316.354 241.72ZM313.794 261.56C313.965 261.816 314.135 262.115 314.306 262.456C314.135 262.115 313.965 261.816 313.794 261.56ZM317.378 265.528C317.975 265.869 318.487 266.168 318.914 266.424C318.317 264.461 317.975 263.011 317.89 262.072C317.975 263.011 317.805 264.163 317.378 265.528ZM280.002 270.008V269.88C279.575 272.099 279.405 273.72 279.49 274.744C280.514 274.488 281.623 274.019 282.818 273.336C284.013 272.653 284.909 271.971 285.506 271.288C284.994 270.691 284.311 270.136 283.458 269.624C282.69 269.112 281.794 268.643 280.77 268.216C280.429 268.899 280.173 269.496 280.002 270.008ZM316.994 284.344C317.591 283.832 318.103 283.064 318.53 282.04C319.042 281.016 319.255 280.205 319.17 279.608L318.786 279.864C318.53 281.656 317.933 283.149 316.994 284.344ZM378.719 305.464C377.439 306.147 376.159 307.384 374.879 309.176C373.684 311.053 372.959 312.675 372.703 314.04C371.85 312.845 371.167 311.224 370.655 309.176C370.143 307.128 369.972 305.379 370.143 303.928C368.436 304.952 366.986 306.573 365.791 308.792C364.682 311.096 363.999 313.187 363.743 315.064C363.146 313.272 363.146 311.096 363.743 308.536C364.34 306.061 365.151 304.056 366.175 302.52C365.578 302.947 364.596 303.416 363.231 303.928C361.951 304.44 360.927 304.611 360.159 304.44C360.5 303.757 360.628 302.691 360.543 301.24C360.458 299.789 360.244 298.723 359.903 298.04C358.794 298.893 357.258 299.619 355.295 300.216C353.332 300.813 351.711 300.899 350.431 300.472C351.54 299.789 352.692 298.637 353.887 297.016C355.082 295.395 355.807 293.901 356.063 292.536C355.124 292.792 353.844 292.707 352.223 292.28C350.687 291.768 349.578 291.213 348.895 290.616C349.748 290.275 350.73 289.507 351.839 288.312C353.034 287.117 353.759 286.051 354.015 285.112C352.308 285.368 350.303 285.24 347.999 284.728C345.695 284.131 343.86 283.363 342.495 282.424C344.202 282.595 346.164 282.296 348.383 281.528C350.687 280.76 352.436 279.736 353.631 278.456C352.522 278.456 351.199 278.072 349.663 277.304C348.127 276.536 347.018 275.725 346.335 274.872C346.591 274.872 346.89 274.829 347.231 274.744C346.89 273.976 346.548 272.909 346.207 271.544C345.866 270.093 345.567 268.685 345.311 267.32C344.714 267.235 344.202 267.192 343.775 267.192C344.116 266.851 344.543 266.509 345.055 266.168C344.714 263.864 344.586 262.328 344.671 261.56C343.818 261.219 342.623 261.219 341.087 261.56C339.636 261.816 338.484 262.157 337.631 262.584C337.546 261.645 337.759 260.451 338.271 259C338.783 257.549 339.38 256.525 340.063 255.928C339.124 256.099 338.058 255.971 336.863 255.544C335.583 255.032 334.602 254.477 333.919 253.88C334.858 253.965 335.924 253.795 337.119 253.368C338.314 252.941 339.295 252.429 340.063 251.832C338.612 252.003 336.906 251.704 334.943 250.936C332.895 250.083 331.316 249.144 330.207 248.12C331.658 248.205 333.407 247.864 335.455 247.096C337.418 246.328 338.954 245.432 340.063 244.408C340.49 243.469 340.746 242.232 340.831 240.696C340.916 239.075 340.788 237.795 340.447 236.856C341.386 237.112 342.452 237.795 343.647 238.904C344.842 239.928 345.695 240.867 346.207 241.72C346.719 241.379 347.274 240.824 347.871 240.056C346.42 239.288 345.311 238.477 344.543 237.624C345.226 237.709 345.994 237.709 346.847 237.624C347.786 237.453 348.724 237.197 349.663 236.856V236.6C349.748 236.685 349.834 236.728 349.919 236.728C351.455 236.131 352.692 235.448 353.631 234.68C352.18 234.851 350.431 234.509 348.383 233.656C346.335 232.803 344.756 231.864 343.647 230.84C345.098 231.096 346.847 230.797 348.895 229.944C351.028 229.091 352.607 228.152 353.631 227.128C352.01 227.469 350.09 227.427 347.871 227C345.738 226.573 344.031 225.848 342.751 224.824C344.372 225.08 346.25 224.995 348.383 224.568C350.516 224.141 352.266 223.501 353.631 222.648C352.692 222.733 351.583 222.52 350.303 222.008C349.108 221.411 348.17 220.771 347.487 220.088C348.426 220.173 349.535 220.045 350.815 219.704C352.095 219.363 353.119 218.936 353.887 218.424C353.204 217.059 352.863 215.309 352.863 213.176C352.863 211.043 353.162 209.251 353.759 207.8C353.844 209.336 354.314 211.085 355.167 213.048C356.106 214.925 357.172 216.376 358.367 217.4C359.135 216.717 359.732 215.693 360.159 214.328C360.671 212.963 360.927 211.768 360.927 210.744C361.439 211.256 361.908 212.024 362.335 213.048C362.847 214.072 363.188 215.053 363.359 215.992C363.274 214.115 363.53 212.109 364.127 209.976C364.724 207.843 365.62 206.179 366.815 204.984C366.559 206.861 366.73 209.037 367.327 211.512C368.01 213.987 368.906 215.949 370.015 217.4C370.1 215.949 370.612 214.243 371.551 212.28C372.49 210.232 373.471 208.653 374.495 207.544C374.41 209.08 374.836 210.872 375.775 212.92C376.714 214.968 377.738 216.504 378.847 217.528C379.444 216.76 380.34 216.077 381.535 215.48C382.73 214.883 383.839 214.584 384.863 214.584C383.924 215.011 382.986 215.736 382.047 216.76C381.194 217.699 380.639 218.637 380.383 219.576C381.492 219.747 382.815 220.344 384.351 221.368C385.972 222.307 387.082 223.203 387.679 224.056C386.57 224.312 385.204 224.909 383.583 225.848C382.047 226.787 380.98 227.725 380.383 228.664C381.492 228.579 382.772 228.792 384.223 229.304C385.759 229.731 386.911 230.328 387.679 231.096C386.57 231.096 385.247 231.352 383.711 231.864C382.26 232.291 381.151 232.888 380.383 233.656C381.834 234.595 383.711 235.277 386.015 235.704C386.954 234.936 387.466 234.424 387.551 234.168V233.912L387.679 234.04L387.807 233.656C387.892 233.912 387.892 234.125 387.807 234.296C388.234 234.723 388.66 235.32 389.087 236.088C390.111 236.088 391.05 236.045 391.903 235.96C391.22 236.387 390.452 236.771 389.599 237.112C390.367 238.904 390.708 240.44 390.623 241.72C390.794 240.44 391.476 238.989 392.671 237.368C393.951 235.747 395.103 234.637 396.127 234.04C396.042 235.235 396.383 236.771 397.151 238.648C398.004 240.525 398.858 241.891 399.711 242.744C401.588 242.317 403.807 242.36 406.367 242.872C408.927 243.384 410.975 244.195 412.511 245.304C410.634 245.048 408.415 245.261 405.855 245.944C403.295 246.541 401.332 247.523 399.967 248.888C401.674 248.632 403.679 248.845 405.983 249.528C408.372 250.211 410.207 251.149 411.487 252.344C409.78 252.003 407.732 252.216 405.343 252.984C403.039 253.752 401.247 254.733 399.967 255.928C400.906 256.44 401.759 257.421 402.527 258.872C403.38 260.323 403.892 261.56 404.063 262.584C403.124 262.072 401.844 261.688 400.223 261.432C398.602 261.091 397.279 261.133 396.255 261.56C395.743 262.413 395.274 263.523 394.847 264.888C394.506 266.168 394.463 267.277 394.719 268.216C394.122 267.448 393.695 266.424 393.439 265.144C393.183 263.779 393.098 262.584 393.183 261.56C392.842 261.987 392.372 263.011 391.775 264.632C391.178 266.253 390.666 267.917 390.239 269.624C389.812 271.245 389.599 272.312 389.599 272.824C389.343 272.568 389.002 271.971 388.575 271.032C388.234 270.008 387.85 268.899 387.423 267.704C386.399 268.301 385.204 268.813 383.839 269.24C382.474 269.581 381.322 269.752 380.383 269.752C381.322 270.605 382.687 271.416 384.479 272.184C386.271 272.867 387.807 273.165 389.087 273.08C388.148 273.933 386.783 274.701 384.991 275.384C383.199 276.067 381.663 276.408 380.383 276.408C381.663 277.005 383.242 277.389 385.119 277.56C387.082 277.645 388.703 277.475 389.983 277.048C389.386 277.901 388.532 278.712 387.423 279.48C387.85 280.163 388.191 281.016 388.447 282.04C388.703 282.979 388.788 283.832 388.703 284.6C388.788 283.32 389.343 281.784 390.367 279.992C391.391 278.115 392.415 276.749 393.439 275.896C393.695 277.176 394.292 278.755 395.231 280.632C396.255 282.509 397.279 283.832 398.303 284.6C398.986 284.6 400.01 284.813 401.375 285.24C402.74 285.581 403.636 286.008 404.063 286.52C403.551 286.947 402.911 287.757 402.143 288.952C401.46 290.147 401.076 291.128 400.991 291.896C402.527 291.555 404.362 291.64 406.495 292.152C408.628 292.664 410.335 293.432 411.615 294.456C410.079 294.115 408.244 294.243 406.111 294.84C404.063 295.352 402.356 296.035 400.991 296.888C402.1 298.083 403.764 299.021 405.983 299.704C408.202 300.301 410.079 300.472 411.615 300.216C410.42 301.325 408.756 302.221 406.623 302.904C404.49 303.501 402.612 303.715 400.991 303.544C401.844 304.397 402.57 305.592 403.167 307.128C403.764 308.749 404.063 310.157 404.063 311.352C403.636 310.243 402.783 309.091 401.503 307.896C400.223 306.701 398.986 305.976 397.791 305.72C396.682 307.256 395.914 309.261 395.487 311.736C395.06 314.296 395.188 316.472 395.871 318.264C395.103 317.155 394.506 315.832 394.079 314.296C393.738 312.76 393.567 311.224 393.567 309.688C393.311 310.712 392.97 311.736 392.543 312.76C392.116 313.784 391.647 314.637 391.135 315.32C391.22 313.869 391.007 312.163 390.495 310.2C390.068 308.237 389.343 306.744 388.319 305.72C388.49 306.744 388.362 307.939 387.935 309.304C387.594 310.755 387.082 311.907 386.399 312.76C386.484 311.736 386.058 310.499 385.119 309.048C384.266 307.597 382.132 306.403 378.719 305.464ZM384.479 241.72C384.735 241.464 384.991 241.165 385.247 240.824C384.991 241.165 384.735 241.464 384.479 241.72ZM381.919 261.56C382.09 261.816 382.26 262.115 382.431 262.456C382.26 262.115 382.09 261.816 381.919 261.56ZM385.503 265.528C386.1 265.869 386.612 266.168 387.039 266.424C386.442 264.461 386.1 263.011 386.015 262.072C386.1 263.011 385.93 264.163 385.503 265.528ZM348.127 270.008V269.88C347.7 272.099 347.53 273.72 347.615 274.744C348.639 274.488 349.748 274.019 350.943 273.336C352.138 272.653 353.034 271.971 353.631 271.288C353.119 270.691 352.436 270.136 351.583 269.624C350.815 269.112 349.919 268.643 348.895 268.216C348.554 268.899 348.298 269.496 348.127 270.008ZM385.119 284.344C385.716 283.832 386.228 283.064 386.655 282.04C387.167 281.016 387.38 280.205 387.295 279.608L386.911 279.864C386.655 281.656 386.058 283.149 385.119 284.344ZM436.476 306.36C435.964 307.128 434.983 307.981 433.532 308.92C432.167 309.944 431.057 310.541 430.204 310.712C430.119 309.859 429.735 308.621 429.052 307C428.455 305.379 427.815 304.269 427.132 303.672C426.364 304.867 425.041 306.019 423.164 307.128C421.372 308.323 419.793 309.005 418.428 309.176C419.111 307.981 419.623 306.317 419.964 304.184C420.305 302.051 420.263 300.301 419.836 298.936C419.153 299.619 418.215 300.216 417.02 300.728C415.825 301.155 414.759 301.368 413.82 301.368C414.503 300.856 415.143 300.003 415.74 298.808C416.337 297.613 416.636 296.547 416.636 295.608C415.356 296.717 413.521 297.571 411.132 298.168C408.743 298.68 406.695 298.808 404.988 298.552C406.524 297.784 408.145 296.589 409.852 294.968C411.644 293.261 412.796 291.555 413.308 289.848C412.54 289.336 411.431 288.995 409.98 288.824C408.529 288.653 407.377 288.653 406.524 288.824C406.865 287.971 407.548 287.075 408.572 286.136C409.596 285.112 410.535 284.429 411.388 284.088C410.023 283.149 408.188 282.637 405.884 282.552C403.58 282.381 401.66 282.595 400.124 283.192C401.148 281.912 402.769 280.931 404.988 280.248C407.121 279.48 408.999 279.053 410.62 278.968C409.852 278.029 408.615 277.005 406.908 275.896C405.287 274.787 403.879 274.147 402.684 273.976C403.367 272.952 404.561 271.928 406.268 270.904C407.975 269.795 409.425 269.112 410.62 268.856C408.743 268.771 406.695 268.259 404.476 267.32C402.172 266.296 400.337 265.144 398.972 263.864C400.679 264.717 402.812 265.059 405.372 264.888C407.932 264.717 410.023 264.163 411.644 263.224C411.644 262.456 411.26 261.304 410.492 259.768C409.809 258.232 409.127 257.165 408.444 256.568C409.041 256.056 410.151 255.501 411.772 254.904C413.393 254.307 414.631 254.093 415.484 254.264C414.887 253.581 414.332 252.472 413.82 250.936C413.308 249.4 413.095 248.163 413.18 247.224C413.948 247.821 415.1 248.205 416.636 248.376C418.257 248.547 419.537 248.547 420.476 248.376C420.903 247.437 421.073 246.115 420.988 244.408C420.903 242.701 420.561 241.421 419.964 240.568C420.988 240.568 422.268 240.952 423.804 241.72C425.34 242.488 426.407 243.299 427.004 244.152C426.577 243.469 426.279 242.531 426.108 241.336C425.937 240.141 425.937 239.117 426.108 238.264C426.364 239.117 426.833 240.056 427.516 241.08C428.284 242.019 429.052 242.659 429.82 243C429.479 242.061 429.436 240.867 429.692 239.416C429.948 237.965 430.332 236.856 430.844 236.088C431.015 237.027 431.569 238.051 432.508 239.16C433.447 240.269 434.385 241.037 435.324 241.464C436.263 240.184 436.903 238.392 437.244 236.088C437.585 233.784 437.457 231.864 436.86 230.328C437.969 231.267 438.951 232.632 439.804 234.424C440.657 236.216 441.169 237.88 441.34 239.416C441.34 237.965 441.639 236.259 442.236 234.296C442.919 232.248 443.815 230.712 444.924 229.688C444.839 231.309 445.18 233.229 445.948 235.448C446.716 237.581 447.612 239.288 448.636 240.568C449.575 239.885 450.556 238.819 451.58 237.368C452.689 235.832 453.329 234.467 453.5 233.272C454.353 234.125 455.079 235.448 455.676 237.24C456.273 239.032 456.487 240.483 456.316 241.592C456.828 240.824 457.724 239.971 459.004 239.032C460.369 238.093 461.521 237.539 462.46 237.368C462.289 238.307 462.417 239.587 462.844 241.208C463.356 242.744 463.911 243.853 464.508 244.536C465.191 244.792 466.343 244.792 467.964 244.536C469.671 244.195 470.823 243.811 471.42 243.384C471.761 244.067 472.06 245.219 472.316 246.84C472.572 248.461 472.572 249.613 472.316 250.296C472.913 250.723 474.023 251.107 475.644 251.448C477.351 251.789 478.545 251.832 479.228 251.576C479.484 252.259 479.399 253.453 478.972 255.16C478.631 256.781 478.204 257.891 477.692 258.488C478.631 258.317 479.953 258.616 481.66 259.384C483.367 260.067 484.561 260.707 485.244 261.304C484.391 261.731 483.409 262.712 482.3 264.248C481.276 265.699 480.636 266.893 480.38 267.832C481.66 268.941 483.495 269.923 485.884 270.776C488.273 271.544 490.321 271.8 492.028 271.544C490.833 272.824 489.084 273.976 486.78 275C484.476 276.024 482.471 276.493 480.764 276.408C481.361 277.432 482.3 278.499 483.58 279.608C484.86 280.632 486.097 281.272 487.292 281.528C486.097 281.784 484.689 281.784 483.068 281.528C481.447 281.187 480.124 280.675 479.1 279.992C479.1 281.101 478.716 282.467 477.948 284.088C478.46 285.368 478.716 286.435 478.716 287.288C480.252 287.373 481.959 287.928 483.836 288.952C485.713 289.891 487.164 290.915 488.188 292.024C486.823 291.341 485.031 291.128 482.812 291.384C480.679 291.555 478.929 292.024 477.564 292.792C477.649 293.816 478.119 294.968 478.972 296.248C479.825 297.443 480.636 298.339 481.404 298.936C480.465 299.107 479.228 298.979 477.692 298.552C476.241 298.125 475.175 297.571 474.492 296.888C475.857 298.168 477.095 300.003 478.204 302.392C479.399 304.781 479.953 306.915 479.868 308.792C478.929 307.171 477.393 305.549 475.26 303.928C473.127 302.307 471.121 301.325 469.244 300.984C468.647 302.349 468.305 304.227 468.22 306.616C468.22 308.92 468.433 310.755 468.86 312.12C467.409 311.779 465.788 310.84 463.996 309.304C462.204 307.768 461.009 306.317 460.412 304.952C459.815 306.659 459.687 308.707 460.028 311.096C460.455 313.571 461.18 315.533 462.204 316.984C461.18 316.045 460.284 314.765 459.516 313.144C458.833 311.523 458.364 309.901 458.108 308.28C457.852 310.072 457.34 311.565 456.572 312.76C456.401 311.736 455.932 310.584 455.164 309.304C454.481 308.024 453.713 307.128 452.86 306.616C452.86 307.725 452.519 309.091 451.836 310.712C451.239 312.419 450.556 313.699 449.788 314.552C449.703 313.784 449.319 312.888 448.636 311.864C447.953 310.84 446.673 309.816 444.796 308.792C442.919 307.853 440.145 307.043 436.476 306.36ZM445.052 262.456C445.052 263.053 445.308 263.821 445.82 264.76C446.332 265.613 446.844 266.211 447.356 266.552C447.953 266.125 448.423 265.357 448.764 264.248C448.508 264.163 448.295 264.077 448.124 263.992C448.209 263.907 448.508 263.821 449.02 263.736C449.02 263.48 449.063 263.267 449.148 263.096C447.783 262.84 446.631 262.797 445.692 262.968C446.204 262.2 447.015 261.517 448.124 260.92C449.233 260.237 450.257 259.853 451.196 259.768C450.513 259.683 449.66 259.768 448.636 260.024C447.697 260.28 446.929 260.621 446.332 261.048C446.588 260.365 447.057 259.683 447.74 259C448.508 258.317 449.191 257.848 449.788 257.592C449.361 257.592 448.807 257.805 448.124 258.232C447.441 258.659 446.972 259.085 446.716 259.512C446.716 259.512 446.631 259.256 446.46 258.744C446.289 259.853 445.991 260.749 445.564 261.432C445.649 260.664 445.521 259.725 445.18 258.616C444.839 257.507 444.412 256.653 443.9 256.056C443.729 256.568 443.729 257.293 443.9 258.232C444.071 259.171 444.327 259.896 444.668 260.408C443.9 260.323 443.047 260.067 442.108 259.64C442.961 260.408 443.559 261.176 443.9 261.944C443.217 261.859 442.364 261.944 441.34 262.2C440.401 262.371 439.719 262.627 439.292 262.968C439.719 263.053 440.316 263.352 441.084 263.864C441.084 263.864 441.212 263.693 441.468 263.352C441.468 263.608 441.511 263.907 441.596 264.248C441.767 264.504 441.937 264.717 442.108 264.888C442.108 264.888 441.98 264.888 441.724 264.888C442.065 265.571 442.407 266.125 442.748 266.552C442.748 265.955 443.004 265.229 443.516 264.376C444.113 263.437 444.625 262.797 445.052 262.456ZM451.964 263.992C451.367 263.651 450.684 263.395 449.916 263.224C450.001 263.309 450.087 263.437 450.172 263.608C450.855 263.608 451.452 263.736 451.964 263.992ZM440.188 266.552C440.188 266.467 440.188 266.253 440.188 265.912C440.188 265.912 440.188 266.125 440.188 266.552ZM471.42 279.992C471.505 280.76 471.335 281.699 470.908 282.808C470.567 283.917 470.14 284.856 469.628 285.624C469.799 286.136 469.927 286.563 470.012 286.904C471.121 285.965 472.231 284.472 473.34 282.424C472.743 281.4 472.103 280.589 471.42 279.992ZM459.132 281.528C459.815 281.955 460.412 282.765 460.924 283.96C461.521 285.155 461.863 286.136 461.948 286.904C462.716 286.392 463.569 285.496 464.508 284.216C465.447 282.851 465.916 281.699 465.916 280.76C466.343 281.016 466.812 281.4 467.324 281.912C466.897 281.059 466.428 280.419 465.916 279.992C465.831 280.845 465.361 281.912 464.508 283.192C463.655 284.472 462.844 285.283 462.076 285.624C461.905 284.771 461.393 283.747 460.54 282.552C459.687 281.272 458.919 280.419 458.236 279.992C457.553 280.76 457.041 281.827 456.7 283.192C456.359 284.557 456.273 285.709 456.444 286.648C455.335 285.453 454.695 283.704 454.524 281.4C454.268 282.851 453.756 284.003 452.988 284.856C454.268 285.965 455.42 286.648 456.444 286.904C457.041 286.477 457.596 285.667 458.108 284.472C458.705 283.277 459.047 282.296 459.132 281.528ZM446.076 279.992C446.247 280.76 446.289 281.741 446.204 282.936C446.204 284.131 446.033 285.24 445.692 286.264C446.119 286.947 446.631 287.629 447.228 288.312C447.911 288.909 448.465 289.293 448.892 289.464C448.636 288.525 448.679 287.245 449.02 285.624C449.447 284.003 449.959 282.808 450.556 282.04C450.897 282.893 451.665 283.832 452.86 284.856C453.031 284.173 452.903 283.363 452.476 282.424C452.049 281.4 451.58 280.589 451.068 279.992C450.641 280.248 450.129 280.803 449.532 281.656C448.935 282.424 448.636 283.064 448.636 283.576C448.124 283.32 447.569 282.808 446.972 282.04C446.375 281.187 446.076 280.504 446.076 279.992ZM441.212 289.464C441.297 289.037 441.553 288.525 441.98 287.928C442.492 287.331 443.004 286.776 443.516 286.264L443.388 286.008C442.193 287.288 441.468 288.44 441.212 289.464ZM492.29 303.032C491.522 302.776 490.541 302.179 489.346 301.24C488.151 300.301 487.426 299.448 487.17 298.68C487.938 298.509 488.919 297.955 490.114 297.016C491.309 295.992 492.034 295.096 492.29 294.328C490.583 294.755 488.535 294.627 486.146 293.944C483.757 293.176 481.837 292.28 480.386 291.256C482.093 291.683 484.141 291.555 486.53 290.872C488.919 290.189 490.839 289.336 492.29 288.312C491.095 287.544 489.559 287.032 487.682 286.776C485.805 286.435 484.183 286.52 482.818 287.032C484.269 286.008 486.189 285.411 488.578 285.24C486.189 284.643 484.354 283.704 483.074 282.424C484.439 282.424 486.061 282.125 487.938 281.528C489.901 280.845 491.351 280.035 492.29 279.096C491.01 278.243 489.346 277.645 487.298 277.304C485.25 276.963 483.458 276.963 481.922 277.304C483.202 276.365 484.866 275.725 486.914 275.384C488.962 275.043 490.754 275.085 492.29 275.512C491.607 274.915 490.669 274.403 489.474 273.976C488.279 273.464 487.213 273.208 486.274 273.208C486.871 272.525 487.767 271.971 488.962 271.544C490.242 271.117 491.351 270.904 492.29 270.904C491.266 270.136 489.858 269.539 488.066 269.112C486.274 268.685 484.738 268.6 483.458 268.856C484.482 268.003 485.89 267.405 487.682 267.064C489.474 266.637 491.01 266.552 492.29 266.808C491.778 266.211 490.967 265.741 489.858 265.4C488.834 264.973 487.938 264.76 487.17 264.76C487.682 264.248 488.45 263.779 489.474 263.352C490.583 262.925 491.522 262.712 492.29 262.712C491.266 261.944 489.858 261.347 488.066 260.92C486.359 260.408 484.866 260.237 483.586 260.408C484.183 259.896 484.994 259.469 486.018 259.128C487.042 258.701 488.066 258.403 489.09 258.232C487.042 257.976 485.293 257.379 483.842 256.44C485.037 256.696 486.487 256.653 488.194 256.312C489.901 255.885 491.266 255.331 492.29 254.648C491.095 254.563 489.645 254.093 487.938 253.24C486.231 252.387 485.037 251.491 484.354 250.552C485.549 250.467 486.957 249.997 488.578 249.144C490.285 248.205 491.522 247.309 492.29 246.456C492.461 245.603 492.375 244.493 492.034 243.128C491.693 241.763 491.223 240.739 490.626 240.056C491.479 239.885 492.589 240.013 493.954 240.44C495.319 240.781 496.343 241.208 497.026 241.72C497.965 240.696 498.69 239.245 499.202 237.368C499.714 235.491 499.927 233.869 499.842 232.504C500.781 233.443 501.506 234.893 502.018 236.856C502.615 238.733 502.829 240.355 502.658 241.72C503.853 240.525 504.877 238.733 505.73 236.344C506.583 233.955 506.882 231.907 506.626 230.2C507.906 231.395 508.93 233.187 509.698 235.576C510.466 237.965 510.807 240.013 510.722 241.72C511.575 240.696 512.215 239.288 512.642 237.496C513.154 235.619 513.367 233.997 513.282 232.632C514.135 233.741 514.818 235.192 515.33 236.984C515.927 238.776 516.098 240.355 515.842 241.72C516.695 241.379 517.805 241.208 519.17 241.208C520.621 241.208 521.943 241.336 523.138 241.592C522.029 239.032 520.578 237.069 518.786 235.704C520.493 236.557 522.071 237.965 523.522 239.928C525.058 241.805 526.039 243.683 526.466 245.56C526.637 244.707 526.551 243.725 526.21 242.616C525.954 241.507 525.57 240.611 525.058 239.928C525.826 240.269 526.551 240.909 527.234 241.848C528.002 242.701 528.514 243.512 528.77 244.28C529.709 242.915 530.306 241.037 530.562 238.648C530.903 236.173 530.818 234.168 530.306 232.632C531.842 233.229 533.378 234.509 534.914 236.472C536.45 238.435 537.389 240.227 537.73 241.848C538.839 240.568 539.693 238.776 540.29 236.472C540.887 234.083 541.058 232.077 540.802 230.456C541.911 231.736 542.807 233.528 543.49 235.832C544.258 238.051 544.557 240.013 544.386 241.72C545.154 241.208 546.306 240.867 547.842 240.696C549.463 240.44 550.743 240.483 551.682 240.824C550.914 241.421 550.231 242.445 549.634 243.896C549.037 245.347 548.695 246.541 548.61 247.48C550.231 247.309 552.109 247.651 554.242 248.504C556.461 249.357 558.125 250.381 559.234 251.576C557.613 251.576 555.693 252.003 553.474 252.856C551.341 253.624 549.719 254.563 548.61 255.672C549.293 256.355 550.317 256.952 551.682 257.464C553.047 257.976 554.199 258.232 555.138 258.232C554.455 258.915 553.431 259.555 552.066 260.152C550.701 260.664 549.549 260.877 548.61 260.792C548.781 261.304 548.866 262.2 548.866 263.48C548.951 264.675 548.866 265.528 548.61 266.04C548.098 265.784 547.202 265.656 545.922 265.656C544.727 265.656 543.917 265.784 543.49 266.04C542.722 266.893 542.039 268.131 541.442 269.752C540.845 271.288 540.589 272.611 540.674 273.72C539.906 272.867 539.181 271.672 538.498 270.136C537.901 268.515 537.73 267.149 537.986 266.04C536.791 267.405 535.81 269.283 535.042 271.672C534.359 274.061 534.231 276.109 534.658 277.816C533.207 275.853 532.183 273.464 531.586 270.648C531.501 271.501 531.373 272.269 531.202 272.952C532.141 273.976 532.866 274.957 533.378 275.896C531.757 275.299 529.666 275 527.106 275C524.546 274.915 522.498 275.256 520.962 276.024C522.498 275.512 524.333 275.427 526.466 275.768C528.685 276.024 530.477 276.621 531.842 277.56C530.306 277.048 528.429 276.963 526.21 277.304C524.077 277.56 522.327 278.157 520.962 279.096C521.559 279.949 522.626 280.803 524.162 281.656C525.698 282.424 527.021 282.851 528.13 282.936C527.618 283.704 526.765 284.429 525.57 285.112C524.375 285.795 523.223 286.264 522.114 286.52C523.309 286.52 524.546 286.733 525.826 287.16C527.191 287.587 528.301 288.141 529.154 288.824C527.959 288.483 526.551 288.568 524.93 289.08C523.309 289.507 521.986 290.061 520.962 290.744C522.754 290.659 524.845 290.957 527.234 291.64C529.623 292.237 531.458 293.133 532.738 294.328C531.031 294.072 528.941 294.285 526.466 294.968C523.991 295.651 522.157 296.632 520.962 297.912C521.474 299.021 522.498 300.131 524.034 301.24C525.57 302.349 526.893 303.075 528.002 303.416C527.063 304.184 525.655 304.824 523.778 305.336C521.986 305.763 520.493 305.891 519.298 305.72C518.53 306.573 517.933 307.853 517.506 309.56C517.079 311.267 517.037 312.717 517.378 313.912C516.354 312.461 515.671 310.627 515.33 308.408C515.074 310.2 514.519 312.035 513.666 313.912C512.898 315.789 512.002 317.283 510.978 318.392C511.063 316.515 510.679 314.296 509.826 311.736C508.973 309.176 507.906 307.171 506.626 305.72C507.053 307.341 507.181 309.219 507.01 311.352C506.839 313.571 506.285 315.363 505.346 316.728C505.943 315.192 506.071 313.315 505.73 311.096C505.389 308.963 504.834 307.171 504.066 305.72C503.127 307.256 502.359 309.176 501.762 311.48C501.25 313.869 501.25 315.917 501.762 317.624C500.823 316.088 500.141 314.168 499.714 311.864C499.287 309.56 499.245 307.512 499.586 305.72C498.562 306.829 497.794 308.408 497.282 310.456C496.855 312.504 496.77 314.296 497.026 315.832C496.087 314.637 495.277 312.888 494.594 310.584C493.911 308.365 493.143 305.848 492.29 303.032ZM524.29 246.84C524.375 245.731 524.205 244.493 523.778 243.128C523.351 243.469 522.925 243.853 522.498 244.28C523.351 245.219 523.949 246.072 524.29 246.84ZM528.77 266.04C529.197 267.32 529.282 268.856 529.026 270.648C529.538 271.075 530.007 271.544 530.434 272.056C530.349 270.947 530.178 269.88 529.922 268.856C529.666 267.747 529.282 266.808 528.77 266.04Z" fill="#B53B27"/>
</svg>
